<svg fill="#a1a6af" height="20" width="20" xmlns="http://www.w3.org/2000/svg" viewBox="0 0 32 32"><path d="M15.9999 6.12665C14.5471 4.79079 12.6455 4.04938 10.6719 4.04932C9.62728 4.0504 8.59319 4.25806 7.62914 4.66034C6.66509 5.06262 5.79011 5.65158 5.05456 6.39332C1.91723 9.54398 1.91856 14.472 5.05723 17.6093L14.8332 27.3853C15.0599 27.784 15.4972 28.0413 15.9999 28.0413C16.2063 28.0393 16.4093 27.9889 16.5927 27.8942C16.7761 27.7995 16.9348 27.6631 17.0559 27.496L26.9426 17.6093C30.0812 14.4707 30.0812 9.54398 26.9399 6.38798C26.2047 5.64761 25.3304 5.05985 24.3673 4.65849C23.4042 4.25714 22.3713 4.05012 21.3279 4.04932C19.3543 4.04964 17.4528 4.79101 15.9999 6.12665V6.12665ZM25.0546 8.27332C27.1386 10.368 27.1399 13.64 25.0572 15.724L15.9999 24.7813L6.94256 15.724C4.85989 13.64 4.86123 10.368 6.93989 8.27865C7.95323 7.27065 9.27856 6.71598 10.6719 6.71598C12.0652 6.71598 13.3852 7.27065 14.3906 8.27598L15.0572 8.94265C15.1809 9.06658 15.3279 9.16489 15.4896 9.23198C15.6514 9.29906 15.8248 9.33358 15.9999 9.33358C16.175 9.33358 16.3484 9.29906 16.5102 9.23198C16.6719 9.16489 16.8188 9.06658 16.9426 8.94265L17.6092 8.27598C19.6252 6.26398 23.0412 6.26932 25.0546 8.27332V8.27332Z" fill="#a1a6af"></path></svg>