<svg fill="currentColor" height="20" width="20" xmlns="http://www.w3.org/2000/svg" viewBox="0 0 32 32" color="#0d17f9"><path d="M29.3334 14.6653H26.6667C26.6667 9.25733 22.7361 5.33333 17.3201 5.33333V2.66666C24.1694 2.66666 29.3334 7.82533 29.3334 14.6653Z" fill="currentColor"></path><path d="M21.3332 14.6667C21.3332 11.8627 20.1372 10.6667 17.3332 10.6667V8C21.6332 8 23.9999 10.3667 23.9999 14.6667H21.3332Z" fill="currentColor"></path><path d="M20.957 17.5776C21.303 17.5669 21.6397 17.6911 21.8959 17.924L27.3146 22.852C27.5712 23.0855 27.7268 23.4098 27.7482 23.7561C27.7696 24.1024 27.6552 24.4434 27.4292 24.7067L24.9492 27.6013C24.719 27.8329 24.4112 27.9711 24.0852 27.9893C24.0412 27.992 23.8759 28 23.6066 28C21.7639 28 15.0732 27.6093 9.73189 22.2693C3.60922 16.144 3.99055 8.248 4.01055 7.91467C4.02911 7.5886 4.1667 7.28069 4.39722 7.04933L7.29055 4.568C7.55402 4.34221 7.89512 4.22802 8.24143 4.24968C8.58773 4.27134 8.91194 4.42714 9.14522 4.684L14.0719 10.1013C14.3051 10.3574 14.4295 10.6941 14.4188 11.0403C14.4081 11.3864 14.2631 11.7148 14.0146 11.956L10.7359 15.148C10.8786 15.9107 11.3599 17.4587 12.9492 19.0493C14.5386 20.6347 16.0826 21.116 16.8506 21.2627L20.0412 17.9813C20.2826 17.7331 20.6109 17.5883 20.957 17.5776Z" fill="currentColor"></path></svg>