<svg fill="currentColor" height="16" width="16" xmlns="http://www.w3.org/2000/svg" viewBox="0 0 32 32" color="#fefeff"><path d="M5.33333 14.6667H13.3333C13.687 14.6667 14.0261 14.5262 14.2761 14.2761C14.5262 14.0261 14.6667 13.6869 14.6667 13.3333V5.33332C14.6667 4.9797 14.5262 4.64056 14.2761 4.39051C14.0261 4.14046 13.687 3.99999 13.3333 3.99999H5.33333C4.97971 3.99999 4.64057 4.14046 4.39052 4.39051C4.14048 4.64056 4 4.9797 4 5.33332V13.3333C4 13.6869 4.14048 14.0261 4.39052 14.2761C4.64057 14.5262 4.97971 14.6667 5.33333 14.6667ZM5.33333 28H13.3333C13.687 28 14.0261 27.8595 14.2761 27.6095C14.5262 27.3594 14.6667 27.0203 14.6667 26.6667V18.6667C14.6667 18.313 14.5262 17.9739 14.2761 17.7238C14.0261 17.4738 13.687 17.3333 13.3333 17.3333H5.33333C4.97971 17.3333 4.64057 17.4738 4.39052 17.7238C4.14048 17.9739 4 18.313 4 18.6667V26.6667C4 27.0203 4.14048 27.3594 4.39052 27.6095C4.64057 27.8595 4.97971 28 5.33333 28ZM18.6667 28H26.6667C27.0203 28 27.3594 27.8595 27.6095 27.6095C27.8595 27.3594 28 27.0203 28 26.6667V18.6667C28 18.313 27.8595 17.9739 27.6095 17.7238C27.3594 17.4738 27.0203 17.3333 26.6667 17.3333H18.6667C18.313 17.3333 17.9739 17.4738 17.7239 17.7238C17.4738 17.9739 17.3333 18.313 17.3333 18.6667V26.6667C17.3333 27.0203 17.4738 27.3594 17.7239 27.6095C17.9739 27.8595 18.313 28 18.6667 28ZM28.3907 8.39065L23.6093 3.60932C23.4856 3.48539 23.3387 3.38707 23.1769 3.31999C23.0152 3.25291 22.8418 3.21838 22.6667 3.21838C22.4916 3.21838 22.3182 3.25291 22.1564 3.31999C21.9947 3.38707 21.8477 3.48539 21.724 3.60932L16.9427 8.39065C16.8187 8.51437 16.7204 8.66131 16.6533 8.82306C16.5863 8.98481 16.5517 9.15821 16.5517 9.33332C16.5517 9.50843 16.5863 9.68182 16.6533 9.84358C16.7204 10.0053 16.8187 10.1523 16.9427 10.276L21.724 15.0573C21.8477 15.1812 21.9947 15.2796 22.1564 15.3466C22.3182 15.4137 22.4916 15.4483 22.6667 15.4483C22.8418 15.4483 23.0152 15.4137 23.1769 15.3466C23.3387 15.2796 23.4856 15.1812 23.6093 15.0573L28.3907 10.276C28.5146 10.1523 28.6129 10.0053 28.68 9.84358C28.7471 9.68182 28.7816 9.50843 28.7816 9.33332C28.7816 9.15821 28.7471 8.98481 28.68 8.82306C28.6129 8.66131 28.5146 8.51437 28.3907 8.39065Z" fill="currentColor"></path></svg>