<svg fill="currentColor" height="16" width="16" xmlns="http://www.w3.org/2000/svg" viewBox="0 0 28 26" style="color: rgb(185, 188, 195);"><path d="M15.1788 1.376C14.7174 0.504 13.2828 0.504 12.8214 1.376L0.821441 24.0427C0.713419 24.2458 0.659866 24.4735 0.666001 24.7035C0.672135 24.9335 0.737748 25.158 0.856446 25.3551C0.975143 25.5523 1.14288 25.7153 1.3433 25.8283C1.54373 25.9413 1.77002 26.0004 2.00011 26H26.0001C26.23 26.0005 26.4562 25.9414 26.6565 25.8284C26.8568 25.7155 27.0244 25.5526 27.1429 25.3556C27.2615 25.1586 27.327 24.9342 27.3331 24.7043C27.3391 24.4745 27.2855 24.247 27.1774 24.044L15.1788 1.376ZM15.3334 22H12.6668V19.3333H15.3334V22ZM12.6668 16.6667V10H15.3334L15.3348 16.6667H12.6668Z"></path></svg>