<svg fill="#191850" height="28" width="112" xmlns="http://www.w3.org/2000/svg" viewBox="0 0 112 28"><path d="M51.8277 19.276C51.8277 19.3867 51.7754 19.4837 51.6917 19.5425C50.2061 20.7577 48.1137 21.7685 45.5157 21.7685C40.7835 21.7685 37.6694 18.4209 37.6694 14C37.6694 9.79377 40.9126 6.23145 45.4739 6.23145C47.8417 6.23145 49.3901 6.81998 50.8094 7.88971C51.0814 8.08704 51.1302 8.46785 50.907 8.71711L49.826 10.0015C49.7074 10.1538 49.4947 10.1711 49.3447 10.0534C48.2637 9.19139 47.1478 8.6548 45.3658 8.6548C42.576 8.6548 40.4592 11.0781 40.4592 13.9965C40.4592 17.088 42.5132 19.3625 45.6029 19.3625C47.0292 19.3625 48.3265 18.9125 49.2576 18.2235V15.4125C48.9646 15.4125 45.725 15.4125 45.725 15.4125C45.5402 15.4125 45.3902 15.2636 45.3902 15.0801V13.453C45.3902 13.2695 45.5402 13.1207 45.725 13.1207H51.4929C51.6777 13.1207 51.8312 13.2695 51.8312 13.453V19.276H51.8277ZM56.5459 13.9377V9.22948C56.5459 9.04599 56.6959 8.89713 56.8807 8.89713H60.4133C62.3801 8.89713 63.5483 9.77646 63.5483 11.3863C63.5483 12.9545 62.3382 13.9411 60.4342 13.9411H56.5459V13.9377ZM54.4501 21.5124H56.2077C56.3925 21.5124 56.5459 21.3635 56.5459 21.18V16.2779H59.8309L63.4297 21.2873C63.5309 21.4258 63.6983 21.5158 63.8831 21.5158H66.0731C66.3556 21.5158 66.509 21.1904 66.3381 20.9758L62.6416 15.8314C64.7584 15.229 66.2509 13.7507 66.2509 11.2824C66.2509 8.38477 64.176 6.49802 60.6295 6.49802H54.4501C54.1397 6.49802 53.8851 6.74728 53.8851 7.05885V20.9585C53.8851 21.2631 54.1397 21.5124 54.4501 21.5124ZM75.4887 21.772C80.1372 21.772 83.4221 18.2305 83.4221 14.0035C83.4221 9.73492 80.179 6.23492 75.534 6.23492C70.8855 6.23492 67.6005 9.77646 67.6005 14.0035C67.6005 18.272 70.8436 21.772 75.4887 21.772ZM75.534 19.3452C72.528 19.3452 70.3903 16.9219 70.3903 14.0035C70.3903 11.0435 72.4861 8.66172 75.4921 8.66172C78.4982 8.66172 80.6358 11.0851 80.6358 14.0035C80.6358 16.9634 78.5365 19.3452 75.534 19.3452ZM91.5823 21.7478C95.5369 21.7478 98.0895 19.4941 98.0895 15.0109V7.05193C98.0895 6.74382 97.8384 6.4911 97.5246 6.4911H95.767C95.5822 6.4911 95.4322 6.63996 95.4322 6.82344V15.139C95.4322 17.9085 93.985 19.3244 91.6277 19.3244C89.2493 19.3244 87.8021 17.822 87.8021 15.0317V6.8269C87.8021 6.64342 87.6522 6.49456 87.4674 6.49456H85.7098C85.3994 6.49456 85.1449 6.74382 85.1449 7.05539V15.1424C85.1414 19.4975 87.6487 21.7478 91.5823 21.7478ZM102.944 14.3046V9.22948C102.944 9.04599 103.094 8.89713 103.279 8.89713H106.033C108.021 8.89713 109.298 9.82146 109.298 11.5801C109.298 13.1899 108.046 14.3046 106.033 14.3046H102.944ZM100.848 21.5124H102.606C102.79 21.5124 102.94 21.3635 102.94 21.18V16.6864H105.946C109.277 16.6864 112 14.9278 112 11.5593C112 8.49209 109.775 6.49456 106.25 6.49456H100.848C100.538 6.49456 100.283 6.74382 100.283 7.05539V20.955C100.283 21.2631 100.538 21.5124 100.848 21.5124Z" fill="#191850"></path><path d="M10.4687 15.3086V18.2824C10.4687 18.4659 10.6187 18.6113 10.8035 18.6113H13.9629C15.4346 18.6113 16.3203 18.0954 16.3203 16.9392C16.3203 15.9318 15.5636 15.3086 13.8548 15.3086H10.4687ZM10.8035 9.38526C10.6187 9.38526 10.4722 9.53412 10.4687 9.71761V12.5633H13.0737C14.5453 12.5633 15.4729 12.0925 15.4729 10.9327C15.4729 9.94609 14.6953 9.38873 13.2899 9.38873H10.8035V9.38526ZM7.22558 20.9585V7.04154C7.22558 6.7369 7.47318 6.4911 7.78006 6.4911H13.7886C16.3134 6.4911 18.7858 7.60238 18.7858 10.4169C18.7858 12.1133 17.8756 13.0549 16.7946 13.6573C18.5452 14.322 19.6297 15.3294 19.6297 17.3892C19.6297 20.1345 17.3805 21.5089 13.9629 21.5089H7.78006C7.47318 21.5089 7.22558 21.2631 7.22558 20.9585ZM21.5338 21.18V6.81998C21.5338 6.6365 21.6837 6.48764 21.8685 6.48764H24.3096C24.6165 6.48764 24.8641 6.73343 24.8641 7.03808V20.9585C24.8641 21.2631 24.6165 21.5089 24.3096 21.5089H21.8685C21.6837 21.5089 21.5338 21.3635 21.5338 21.18ZM1.54137 14C1.54137 22.1978 8.50889 26.6118 16.0448 26.6118C23.5808 26.6118 30.5483 22.1944 30.5483 14C30.5483 5.80218 23.5808 1.38477 16.0413 1.38477C8.50889 1.38477 1.54137 5.80218 1.54137 14ZM0.840429 14C0.840429 5.40059 8.11134 0.688921 16.0448 0.688921C23.9783 0.688921 31.2527 5.40059 31.2527 14C31.2527 22.5994 23.9818 27.3076 16.0483 27.3076C8.11134 27.3076 0.840429 22.5994 0.840429 14ZM0 14C0 23.3333 8.02416 28 16.0448 28C24.0655 28 32.0897 23.3333 32.0897 14C32.0897 4.66667 24.069 0 16.0448 0C8.02068 0 0 4.66667 0 14Z"></path></svg>