<svg height="49" width="162" xmlns="http://www.w3.org/2000/svg" viewBox="0 0 162 49"><rect fill="white" height="48" rx="12" width="162" y="0.144165"></rect><path d="M54.2507 14.0254L54.4265 11.2202H56.4912V15.4056H53.873V15.3757C54.1385 15.054 54.2133 14.6426 54.2507 14.0254ZM53.2633 16.0115H57.213V17.0775H57.8377V15.4056H57.1644V10.6143H53.8243L53.6186 14.0104C53.5775 14.7174 53.4316 15.1961 53.0389 15.4056H52.6387V17.0775H53.2633V16.0115Z" fill="#8A909B"></path><path d="M60.1342 16.0788C61.2077 16.0788 61.9333 15.3046 61.9333 14.0665C61.9333 12.8248 61.2077 12.0543 60.1342 12.0543C59.057 12.0543 58.3314 12.8248 58.3314 14.0665C58.3314 15.3046 59.057 16.0788 60.1342 16.0788ZM60.1342 15.5066C59.446 15.5066 58.9934 14.9829 58.9934 14.0665C58.9934 13.1502 59.446 12.6265 60.1342 12.6265C60.8224 12.6265 61.2713 13.1502 61.2713 14.0665C61.2713 14.9829 60.8224 15.5066 60.1342 15.5066Z" fill="#8A909B"></path><path d="M65.8756 13.3185C65.7596 12.6565 65.1874 12.0543 64.2485 12.0543C63.1713 12.0543 62.4682 12.8547 62.4682 14.0665C62.4682 15.3046 63.1751 16.0788 64.256 16.0788C65.1312 16.0788 65.7559 15.5589 65.883 14.8221H65.2397C65.1163 15.2522 64.7759 15.5066 64.2598 15.5066C63.5828 15.5066 63.1302 14.9567 63.1302 14.0665C63.1302 13.1988 63.5753 12.6265 64.2523 12.6265C64.8021 12.6265 65.12 12.9445 65.2322 13.3185H65.8756Z" fill="#8A909B"></path><path d="M69.3316 12.1216H66.1748V12.6565H67.4315V16.0115H68.0749V12.6565H69.3316V12.1216Z" fill="#8A909B"></path><path d="M70.2592 17.4665C70.9624 17.4665 71.284 17.1934 71.6169 16.2845L73.1467 12.1216H72.4622L71.385 15.3607H71.3738L70.2966 12.1216H69.6009L71.0372 16.0152L70.9474 16.2883C70.7978 16.7409 70.5958 16.9167 70.233 16.9167C70.1507 16.9167 70.0497 16.9129 69.9787 16.8979V17.444C70.0497 17.459 70.1806 17.4665 70.2592 17.4665Z" fill="#8A909B"></path><path d="M76.2511 16.0115H76.8982V12.1216H73.7264V16.0115H74.3698V12.6565H76.2511V16.0115Z" fill="#8A909B"></path><path d="M80.3729 16.0115H81.0163V12.1216H80.3729V13.7262H78.4542V12.1216H77.8108V16.0115H78.4542V14.261H80.3729V16.0115Z" fill="#8A909B"></path><path d="M83.5485 16.0788C84.6219 16.0788 85.3475 15.3046 85.3475 14.0665C85.3475 12.8248 84.6219 12.0543 83.5485 12.0543C82.4712 12.0543 81.7456 12.8248 81.7456 14.0665C81.7456 15.3046 82.4712 16.0788 83.5485 16.0788ZM83.5485 15.5066C82.8602 15.5066 82.4077 14.9829 82.4077 14.0665C82.4077 13.1502 82.8602 12.6265 83.5485 12.6265C84.2367 12.6265 84.6855 13.1502 84.6855 14.0665C84.6855 14.9829 84.2367 15.5066 83.5485 15.5066Z" fill="#8A909B"></path><path d="M89.215 12.649C89.6227 12.649 89.8434 12.8397 89.8434 13.1838C89.8434 13.5579 89.6077 13.7374 89.1177 13.7374H88.2837V12.649H89.215ZM89.1701 14.261C89.7386 14.261 90.0117 14.463 90.0117 14.8782C90.0117 15.2709 89.7573 15.4841 89.2861 15.4841H88.2837V14.261H89.1701ZM87.6403 16.0115H89.316C90.1426 16.0115 90.6513 15.5814 90.6513 14.8932C90.6513 14.4069 90.3296 14.0516 89.8396 13.9843V13.9543C90.1987 13.8795 90.4792 13.513 90.4792 13.1165C90.4792 12.4994 90.0341 12.1216 89.3048 12.1216H87.6403V16.0115Z" fill="#8A909B"></path><path d="M61.6996 34.6146H63.7258L59.2716 22.2781H57.2027L52.7485 34.6146H54.7405L55.869 31.2804H60.5711L61.6996 34.6146ZM58.1944 24.3299H58.2457L60.0838 29.7415H56.3563L58.1944 24.3299Z" fill="#1D1D1F"></path><path d="M69.5478 25.4755C68.2483 25.4755 67.2139 26.1338 66.6838 27.1682H66.6496V25.6208H64.8628V37.5897H66.7094V33.1356H66.7522C67.2651 34.1359 68.2911 34.7685 69.582 34.7685C71.839 34.7685 73.3351 32.9646 73.3351 30.1177C73.3351 27.2708 71.8304 25.4755 69.5478 25.4755ZM69.0605 33.204C67.6413 33.204 66.7009 31.99 66.7009 30.1177C66.7009 28.2625 67.6499 27.0314 69.0605 27.0314C70.5224 27.0314 71.4372 28.2369 71.4372 30.1177C71.4372 32.0071 70.5224 33.204 69.0605 33.204Z" fill="#1D1D1F"></path><path d="M79.4478 25.4755C78.1483 25.4755 77.1139 26.1338 76.5838 27.1682H76.5496V25.6208H74.7628V37.5897H76.6095V33.1356H76.6522C77.1652 34.1359 78.1911 34.7685 79.482 34.7685C81.739 34.7685 83.2351 32.9646 83.2351 30.1177C83.2351 27.2708 81.7305 25.4755 79.4478 25.4755ZM78.9605 33.204C77.5413 33.204 76.6009 31.99 76.6009 30.1177C76.6009 28.2625 77.5499 27.0314 78.9605 27.0314C80.4224 27.0314 81.3372 28.2369 81.3372 30.1177C81.3372 32.0071 80.4224 33.204 78.9605 33.204Z" fill="#1D1D1F"></path><path d="M87.8945 31.1778C88.0142 33.4092 89.8608 34.8198 92.5965 34.8198C95.5204 34.8198 97.3585 33.375 97.3585 31.0667C97.3585 29.2628 96.3069 28.2454 93.7763 27.647L92.417 27.3136C90.8269 26.9203 90.1771 26.4073 90.1771 25.5353C90.1771 24.441 91.1945 23.6887 92.682 23.6887C94.1696 23.6887 95.187 24.4325 95.2981 25.6636H97.1618C97.102 23.5348 95.3152 22.0729 92.7077 22.0729C90.0745 22.0729 88.2193 23.5348 88.2193 25.6636C88.2193 27.382 89.2709 28.4421 91.5364 28.9892L93.1351 29.3739C94.7339 29.7672 95.4092 30.34 95.4092 31.2975C95.4092 32.4004 94.2893 33.204 92.7333 33.204C91.109 33.204 89.9206 32.4004 89.7838 31.1778H87.8945Z" fill="#1D1D1F"></path><path d="M99.3932 23.492V25.6208H98.0852V27.0827H99.3932V32.2465C99.3932 33.982 100.103 34.6745 101.924 34.6745C102.334 34.6745 102.744 34.6403 102.95 34.589V33.127C102.83 33.1527 102.531 33.1698 102.343 33.1698C101.59 33.1698 101.248 32.8193 101.248 32.0413V27.0827H102.958V25.6208H101.248V23.492H99.3932Z" fill="#1D1D1F"></path><path d="M108.122 34.7856C110.695 34.7856 112.388 33.0159 112.388 30.1177C112.388 27.2281 110.687 25.4584 108.122 25.4584C105.557 25.4584 103.856 27.2281 103.856 30.1177C103.856 33.0159 105.549 34.7856 108.122 34.7856ZM108.122 33.2638C106.677 33.2638 105.737 32.1182 105.737 30.1177C105.737 28.1257 106.677 26.9801 108.122 26.9801C109.567 26.9801 110.507 28.1257 110.507 30.1177C110.507 32.1182 109.575 33.2638 108.122 33.2638Z" fill="#1D1D1F"></path><path d="M113.816 34.6146H115.662V29.2286C115.662 27.9548 116.398 27.1597 117.586 27.1597C117.945 27.1597 118.27 27.2024 118.415 27.2623V25.5439C118.278 25.5182 118.048 25.4755 117.783 25.4755C116.722 25.4755 115.919 26.0996 115.62 27.1511H115.577V25.6208H113.816V34.6146Z" fill="#1D1D1F"></path><path d="M122.929 26.9459C124.22 26.9459 125.092 27.912 125.135 29.2884H120.638C120.732 27.9291 121.638 26.9459 122.929 26.9459ZM125.126 31.9729C124.878 32.7594 124.1 33.2895 123.049 33.2895C121.57 33.2895 120.63 32.255 120.63 30.6905V30.5794H126.982V29.9467C126.982 27.2195 125.426 25.4584 122.929 25.4584C120.39 25.4584 118.766 27.3392 118.766 30.1605C118.766 32.9988 120.364 34.7856 123.006 34.7856C125.067 34.7856 126.623 33.6144 126.879 31.9729H125.126Z" fill="#1D1D1F"></path><path d="M36.1729 23.8914C36.1381 20.0228 39.3415 18.1407 39.4879 18.053C37.6738 15.4087 34.8618 15.0474 33.8737 15.0186C31.512 14.7701 29.2212 16.4314 28.0181 16.4314C26.7911 16.4314 24.9385 15.0426 22.9418 15.0834C20.3724 15.123 17.9687 16.6102 16.6504 18.9197C13.9297 23.6286 15.9588 30.5485 18.5654 34.3547C19.8693 36.22 21.393 38.3002 23.3872 38.227C25.3383 38.1478 26.0671 36.9846 28.4216 36.9846C30.7544 36.9846 31.4388 38.227 33.4727 38.1802C35.5666 38.1478 36.8849 36.3077 38.1432 34.4267C39.65 32.2914 40.2551 30.186 40.2792 30.0779C40.2311 30.0611 36.2138 28.5271 36.1729 23.8914ZM32.3309 12.5147C33.3802 11.2028 34.0982 9.41787 33.8989 7.60657C32.3801 7.67379 30.4807 8.65686 29.3869 9.94001C28.4192 11.0707 27.5547 12.924 27.778 14.6669C29.4841 14.7941 31.2359 13.8063 32.3309 12.5147Z" fill="#1D1D1F"></path></svg>