<svg height="49" width="162" xmlns="http://www.w3.org/2000/svg" viewBox="0 0 162 49"><rect fill="white" height="48" rx="12" width="162" y="0.144165"></rect><path d="M54.2507 13.4784L54.4265 10.6732H56.4912V14.8586H53.873V14.8287C54.1385 14.507 54.2133 14.0956 54.2507 13.4784ZM53.2633 15.4645H57.213V16.5305H57.8377V14.8586H57.1644V10.0673H53.8243L53.6186 13.4634C53.5775 14.1704 53.4316 14.6491 53.0389 14.8586H52.6387V16.5305H53.2633V15.4645Z" fill="#8A909B"></path><path d="M60.1342 15.5318C61.2077 15.5318 61.9333 14.7576 61.9333 13.5196C61.9333 12.2778 61.2077 11.5073 60.1342 11.5073C59.057 11.5073 58.3314 12.2778 58.3314 13.5196C58.3314 14.7576 59.057 15.5318 60.1342 15.5318ZM60.1342 14.9596C59.446 14.9596 58.9934 14.4359 58.9934 13.5196C58.9934 12.6032 59.446 12.0795 60.1342 12.0795C60.8224 12.0795 61.2713 12.6032 61.2713 13.5196C61.2713 14.4359 60.8224 14.9596 60.1342 14.9596Z" fill="#8A909B"></path><path d="M65.8756 12.7715C65.7596 12.1095 65.1874 11.5073 64.2485 11.5073C63.1713 11.5073 62.4682 12.3077 62.4682 13.5196C62.4682 14.7576 63.1751 15.5318 64.256 15.5318C65.1312 15.5318 65.7559 15.0119 65.883 14.2751H65.2397C65.1163 14.7052 64.7759 14.9596 64.2598 14.9596C63.5828 14.9596 63.1302 14.4097 63.1302 13.5196C63.1302 12.6518 63.5753 12.0795 64.2523 12.0795C64.8021 12.0795 65.12 12.3975 65.2322 12.7715H65.8756Z" fill="#8A909B"></path><path d="M69.3316 11.5746H66.1748V12.1095H67.4315V15.4645H68.0749V12.1095H69.3316V11.5746Z" fill="#8A909B"></path><path d="M70.2592 16.9195C70.9624 16.9195 71.284 16.6464 71.6169 15.7375L73.1467 11.5746H72.4622L71.385 14.8137H71.3738L70.2966 11.5746H69.6009L71.0372 15.4682L70.9474 15.7413C70.7978 16.1939 70.5958 16.3697 70.233 16.3697C70.1507 16.3697 70.0497 16.3659 69.9787 16.351V16.897C70.0497 16.912 70.1806 16.9195 70.2592 16.9195Z" fill="#8A909B"></path><path d="M76.2511 15.4645H76.8982V11.5746H73.7264V15.4645H74.3698V12.1095H76.2511V15.4645Z" fill="#8A909B"></path><path d="M80.3729 15.4645H81.0163V11.5746H80.3729V13.1792H78.4542V11.5746H77.8108V15.4645H78.4542V13.714H80.3729V15.4645Z" fill="#8A909B"></path><path d="M83.5485 15.5318C84.6219 15.5318 85.3475 14.7576 85.3475 13.5196C85.3475 12.2778 84.6219 11.5073 83.5485 11.5073C82.4712 11.5073 81.7456 12.2778 81.7456 13.5196C81.7456 14.7576 82.4712 15.5318 83.5485 15.5318ZM83.5485 14.9596C82.8602 14.9596 82.4077 14.4359 82.4077 13.5196C82.4077 12.6032 82.8602 12.0795 83.5485 12.0795C84.2367 12.0795 84.6855 12.6032 84.6855 13.5196C84.6855 14.4359 84.2367 14.9596 83.5485 14.9596Z" fill="#8A909B"></path><path d="M89.215 12.102C89.6227 12.102 89.8434 12.2927 89.8434 12.6368C89.8434 13.0109 89.6077 13.1904 89.1177 13.1904H88.2837V12.102H89.215ZM89.1701 13.714C89.7386 13.714 90.0117 13.916 90.0117 14.3312C90.0117 14.7239 89.7573 14.9371 89.2861 14.9371H88.2837V13.714H89.1701ZM87.6403 15.4645H89.316C90.1426 15.4645 90.6513 15.0344 90.6513 14.3462C90.6513 13.8599 90.3296 13.5046 89.8396 13.4373V13.4073C90.1987 13.3325 90.4792 12.966 90.4792 12.5695C90.4792 11.9524 90.0341 11.5746 89.3048 11.5746H87.6403V15.4645Z" fill="#8A909B"></path><path d="M64.29 28.9379V27.6812H59.2118V29.2286H62.4006V29.4424C62.375 31.3146 60.99 32.597 58.9895 32.597C56.6384 32.597 55.1765 30.776 55.1765 27.8265C55.1765 24.9284 56.5957 23.2014 58.9553 23.2014C60.5625 23.2014 61.768 24.082 62.2297 25.6123H64.196C63.7685 23.1501 61.691 21.5258 58.9467 21.5258C55.433 21.5258 53.2188 23.9537 53.2188 27.8436C53.2188 31.8019 55.4416 34.2727 58.9724 34.2727C62.3151 34.2727 64.29 32.2807 64.29 28.9379Z" fill="#1D1D1F"></path><path d="M69.8043 34.2385C72.3776 34.2385 74.0703 32.4688 74.0703 29.5706C74.0703 26.6809 72.369 24.9113 69.8043 24.9113C67.2395 24.9113 65.5382 26.6809 65.5382 29.5706C65.5382 32.4688 67.231 34.2385 69.8043 34.2385ZM69.8043 32.7167C68.3595 32.7167 67.419 31.5711 67.419 29.5706C67.419 27.5786 68.3595 26.433 69.8043 26.433C71.2491 26.433 72.1895 27.5786 72.1895 29.5706C72.1895 31.5711 71.2576 32.7167 69.8043 32.7167Z" fill="#1D1D1F"></path><path d="M79.3623 34.2385C81.9357 34.2385 83.6284 32.4688 83.6284 29.5706C83.6284 26.6809 81.9271 24.9113 79.3623 24.9113C76.7976 24.9113 75.0963 26.6809 75.0963 29.5706C75.0963 32.4688 76.789 34.2385 79.3623 34.2385ZM79.3623 32.7167C77.9175 32.7167 76.9771 31.5711 76.9771 29.5706C76.9771 27.5786 77.9175 26.433 79.3623 26.433C80.8072 26.433 81.7476 27.5786 81.7476 29.5706C81.7476 31.5711 80.8157 32.7167 79.3623 32.7167Z" fill="#1D1D1F"></path><path d="M88.8862 32.5714C87.467 32.5714 86.5437 31.4258 86.5437 29.5449C86.5437 27.6727 87.467 26.4843 88.8862 26.4843C90.331 26.4843 91.28 27.6983 91.28 29.5449C91.28 31.4001 90.331 32.5714 88.8862 32.5714ZM88.9033 37.453C91.4681 37.453 93.1266 36.0509 93.1266 33.9051V25.0737H91.3313V26.6126H91.2971C90.7499 25.5695 89.7069 24.9284 88.4331 24.9284C86.1248 24.9284 84.6543 26.7066 84.6543 29.5364C84.6543 32.3405 86.1333 34.1017 88.3903 34.1017C89.6727 34.1017 90.7328 33.4605 91.2372 32.4859H91.2714V33.9649C91.2714 35.196 90.4165 36.0167 88.9717 36.0167C87.9201 36.0167 87.0994 35.5209 86.8344 34.7685H84.9792C85.21 36.3245 86.7831 37.453 88.9033 37.453Z" fill="#1D1D1F"></path><path d="M95.0245 34.0675H96.8712V21.7309H95.0245V34.0675Z" fill="#1D1D1F"></path><path d="M102.531 26.3988C103.822 26.3988 104.694 27.3649 104.736 28.7413H100.24C100.334 27.382 101.24 26.3988 102.531 26.3988ZM104.728 31.4258C104.48 32.2123 103.702 32.7424 102.65 32.7424C101.171 32.7424 100.231 31.7079 100.231 30.1434V30.0323H106.583V29.3996C106.583 26.6724 105.027 24.9113 102.531 24.9113C99.9916 24.9113 98.3673 26.7921 98.3673 29.6133C98.3673 32.4517 99.966 34.2385 102.608 34.2385C104.668 34.2385 106.224 33.0672 106.481 31.4258H104.728Z" fill="#1D1D1F"></path><path d="M111.798 21.7309V34.0675H113.713V29.8527H116.363C118.783 29.8527 120.484 28.1942 120.484 25.7833C120.484 23.3809 118.817 21.7309 116.423 21.7309H111.798ZM113.713 23.3467H115.919C117.577 23.3467 118.526 24.2359 118.526 25.7918C118.526 27.3478 117.577 28.2455 115.91 28.2455H113.713V23.3467Z" fill="#1D1D1F"></path><path d="M122.006 34.0675H123.853V21.7309H122.006V34.0675Z" fill="#1D1D1F"></path><path d="M128.897 32.7595C127.905 32.7595 127.255 32.2465 127.255 31.46C127.255 30.6905 127.879 30.2032 128.982 30.1263L131.196 29.9895V30.6991C131.196 31.8703 130.188 32.7595 128.897 32.7595ZM128.384 34.2214C129.563 34.2214 130.701 33.5887 131.222 32.5885H131.265V34.0675H133.034V27.8693C133.034 26.0654 131.641 24.9113 129.461 24.9113C127.238 24.9113 125.853 26.1082 125.751 27.7325H127.495C127.657 26.9289 128.324 26.4159 129.392 26.4159C130.521 26.4159 131.196 27.0144 131.196 28.0146V28.7071L128.734 28.8525C126.597 28.9721 125.391 29.9382 125.391 31.5113C125.391 33.1271 126.623 34.2214 128.384 34.2214Z" fill="#1D1D1F"></path><path d="M135.719 37.4188C137.591 37.4188 138.472 36.7178 139.241 34.5377L142.618 25.0737H140.669L138.386 32.3918H138.361L136.078 25.0737H134.077L137.326 34.076C137.326 34.0846 137.164 34.6146 137.164 34.6317C136.882 35.5551 136.429 35.9141 135.565 35.9141C135.411 35.9141 135.103 35.9141 134.967 35.8799V37.3761C135.103 37.4017 135.574 37.4188 135.719 37.4188Z" fill="#1D1D1F"></path><path d="M30.0802 22.7233L17.6245 35.9442C17.625 35.9469 17.6259 35.9492 17.6264 35.952C18.0084 37.3877 19.3196 38.4447 20.8759 38.4447C21.498 38.4447 22.082 38.2765 22.5829 37.9813L22.6227 37.958L36.6439 29.8671L30.0808 22.7231" fill="#EB3131"></path><path d="M42.6831 20.4724L42.6712 20.4642L36.6178 16.955L29.7979 23.0236L36.6415 29.8664L42.6629 26.392C43.7186 25.8221 44.4353 24.7092 44.4353 23.4258C44.4353 22.1516 43.7282 21.0443 42.683 20.4725" fill="#F6B60B"></path><path d="M17.623 10.8512C17.5481 11.1273 17.5088 11.4165 17.5088 11.7169V35.0794C17.5088 35.3792 17.5477 35.6694 17.6235 35.9446L30.5092 23.0615L17.6235 10.8515" fill="#5778C5"></path><path d="M30.1723 23.398L36.6198 16.9525L22.6144 8.83232C22.1053 8.52741 21.5111 8.35144 20.8754 8.35144C19.3191 8.35144 18.0061 9.41045 17.624 10.8478C17.6235 10.8492 17.6235 10.8501 17.6235 10.8514L30.1723 23.3983" fill="#3BAD49"></path></svg>